<svg xmlns="http://www.w3.org/2000/svg" width="34.006" height="27.951" viewBox="0 0 34.006 27.951"><defs><style>.a{fill:#edb173}</style></defs><path d="M30.818,16.226H25.5V12.233A4.132,4.132,0,0,1,29.755,8.24h.531a1.544,1.544,0,0,0,1.594-1.5V3.747a1.544,1.544,0,0,0-1.594-1.5h-.531c-5.871,0-10.627,4.467-10.627,9.983V27.206A3.1,3.1,0,0,0,22.316,30.2h8.5a3.1,3.1,0,0,0,3.188-2.995V19.22A3.1,3.1,0,0,0,30.818,16.226Zm-19.128,0H6.376V12.233A4.132,4.132,0,0,1,10.627,8.24h.531a1.544,1.544,0,0,0,1.594-1.5V3.747a1.544,1.544,0,0,0-1.594-1.5h-.531C4.755,2.25,0,6.717,0,12.233V27.206A3.1,3.1,0,0,0,3.188,30.2h8.5a3.1,3.1,0,0,0,3.188-2.995V19.22A3.1,3.1,0,0,0,11.689,16.226Z" class="a" transform="translate(0 -2.25)"/></svg>